# xmcd
# Copyright (C) 1995-1998 Ti Kan
#
# Track frame offsets:
#       150
#       12637
#       24697
#       38712
#       49050
#       57472
#       72350
#       85350
#       95722
#       106650
#       117900
#
# Disc length: 1747 seconds
#
# Revision: 0
# Processed by: cddbd v1.4b42PL1 Copyright (c) Steve Scherf et al.
# Submitted via: CD-Transfer v1.0
#
DISCID=9506d10b
DTITLE=Elritschi - Elritschi
DYEAR=2000
DGENRE=
TTITLE0=Rumble
TTITLE1=Rain Ride
TTITLE2=Rolling Stone
TTITLE3=Grafenort
TTITLE4=Down That Street
TTITLE5=The Train
TTITLE6=The Hot July Bathing Club
TTITLE7=Steinigeischtär
TTITLE8=Bärglizwärgä
TTITLE9=Babette
TTITLE10=Bonus Track
EXTD=
EXTT0=
EXTT1=
EXTT2=
EXTT3=
EXTT4=
EXTT5=
EXTT6=
EXTT7=
EXTT8=
EXTT9=
EXTT10=
PLAYORDER=
